PathFileType	3	(X/Y/Z)	D:\Vicon Database\Healthy Subjects\S0040\Jan. 30, 2020\Force Plate Walk 4.trc
DataRate	CameraRate	NumFrames	NumMarkers	Units	OrigDataRate	OrigDataStartFrame	OrigNumFrames
100.0	100.0	4	53	mm	100.0	487	329	
Frame#	Time	right_foot_cluster2			right_foot_cluster3			sternum_cluster1			sternum_cluster2			sternum_cluster3			left_asis			right_asis			left_psis			right_psis			sacrum_cluster1			sacrum_cluster2			sacrum_cluster3			left_lat_femoral_epicondyle			left_anterior_thigh15			left_anterior_thigh25			left_anterior_thigh50			left_lateral_thigh25			left_lateral_thigh50			left_thigh_cluster1			left_thigh_cluster2			left_thigh_cluster3			left_fibular_head			left_tibial_tuberosity			left_anterior_shank30			left_lateral_malleolus			left_shank_cluster1			left_shank_cluster2			left_shank_cluster3			left_heel			left_metatarsal2			left_foot_cluster1			left_foot_cluster2			left_foot_cluster3			right_lat_femoral_epicondyle			right_anterior_thigh15			right_anterior_thigh25			right_anterior_thigh50			right_lateral_thigh25			right_lateral_thigh50			right_thigh_cluster1			right_thigh_cluster2			right_thigh_cluster3			right_fibular_head			right_tibial_tuberosity			right_lateral_distal_shank			right_anterior_shank30			right_lateral_malleolus			right_shank_cluster1			right_shank_cluster2			right_shank_cluster3			right_heel			right_metatarsal2			right_foot_cluster1			
		X1	Y1	Z1	X2	Y2	Z2	X3	Y3	Z3	X4	Y4	Z4	X5	Y5	Z5	X6	Y6	Z6	X7	Y7	Z7	X8	Y8	Z8	X9	Y9	Z9	X10	Y10	Z10	X11	Y11	Z11	X12	Y12	Z12	X13	Y13	Z13	X14	Y14	Z14	X15	Y15	Z15	X16	Y16	Z16	X17	Y17	Z17	X18	Y18	Z18	X19	Y19	Z19	X20	Y20	Z20	X21	Y21	Z21	X22	Y22	Z22	X23	Y23	Z23	X24	Y24	Z24	X25	Y25	Z25	X26	Y26	Z26	X27	Y27	Z27	X28	Y28	Z28	X29	Y29	Z29	X30	Y30	Z30	X31	Y31	Z31	X32	Y32	Z32	X33	Y33	Z33	X34	Y34	Z34	X35	Y35	Z35	X36	Y36	Z36	X37	Y37	Z37	X38	Y38	Z38	X39	Y39	Z39	X40	Y40	Z40	X41	Y41	Z41	X42	Y42	Z42	X43	Y43	Z43	X44	Y44	Z44	X45	Y45	Z45	X46	Y46	Z46	X47	Y47	Z47	X48	Y48	Z48	X49	Y49	Z49	X50	Y50	Z50	X51	Y51	Z51	X52	Y52	Z52	X53	Y53	Z53	
487	4.86	719.82916	101.84502	-169.1514	718.8916	105.18535	-206.50238	898.41052	1423.2173	-125.26561	885.20251	1396.1527	-116.40024	886.91803	1398.3816	-154.44545	897.86938	1039.4475	-0.73961926	890.54883	1063.6023	-250.57208	1063.6724	1047.6469	-54.228519	1063.6813	1057.0619	-172.36545	1075.8135	1108.613	-116.31055	1079.1888	1083.7445	-130.64764	1082.6486	1075.7148	-91.098473	960.05634	511.58249	31.112705	850.02393	575.34772	-3.4477897	837.52942	665.97986	7.8298569	849.41223	808.49298	11.784478	961.25574	655.96307	43.746277	956.02747	801.92505	61.84264	962.64355	758.82477	67.763901	964.86572	729.81525	66.12323	929.35266	739.38611	75.285835	994.40338	454.02399	44.466927	953.68628	402.56067	-1.4084226				1293.5771	243.22208	3.8477924	996.30103	359.30295	-25.859182	1017.3506	342.13382	-16.463217	1021.1744	345.49588	-55.230549	1344.3152	302.57642	-38.599426	1279.322	94.580872	-33.127663	1249.4598	163.82082	-21.000883	1261.8538	135.32951	-13.528015	1250.0017	134.17252	-50.108952	805.41864	530.24976	-261.7236	752.04437	638.17834	-203.22513	760.85632	718.56506	-203.03592	798.04388	841.12665	-213.11574	846.48785	684.4726	-291.03946	889.66095	826.3374	-319.15036	879.79828	773.14362	-326.19061	861.51544	751.6192	-320.64041	897.96979	738.73157	-319.03806	806.58234	461.67636	-263.20966	755.49139	459.22397	-213.02065	821.27509	193.3278	-240.43733	779.33057	208.78624	-190.95564	829.34985	93.863197	-223.53012	771.57983	392.16757	-157.12029	778.23224	364.61163	-149.95416	752.27716	361.57101	-176.30957	905.19751	59.880463	-188.71252	686.84259	69.9599	-178.937	743.83905	115.14139	-178.59653
488	4.87	719.6825	101.54313	-169.05652	718.79944	104.88258	-206.41325	884.63928	1424.634	-125.45442	871.3974	1397.6461	-116.44517	872.65442	1399.9102	-154.49419	885.45374	1041.3807	-0.57861143	876.53369	1065.2288	-250.43341	1050.9491	1049.0461	-55.137611	1050.204	1058.7866	-173.44501	1062.6442	1110.1104	-117.30386	1065.8934	1085.4332	-131.50922	1069.6487	1077.2946	-92.099304	933.2262	513.10156	29.83741	825.79016	579.46521	-5.3334169	815.7771	670.5531	5.7356486	833.05157	812.02319	11.192864	939.23047	656.64838	42.407219	939.99603	803.18463	60.921391	944.66467	759.36591	67.092102	946.45581	730.6239	65.156326	910.81122	740.85944	74.121597	966.4325	456.0994	43.304207	925.32764	404.69394	-3.2780466				1265.8583	246.99594	2.9190028	967.81946	362.23438	-27.979227	988.38672	345.06161	-18.569906	991.47241	348.16876	-56.087608	1319.7318	304.70511	-38.551533	1246.9452	99.215393	-35.065269	1219.5959	169.52904	-23.032894	1230.0963	140.98354	-15.079472	1219.5416	139.94101	-52.404888	798.84686	529.79089	-261.73364	743.79602	637.03052	-202.60031	751.50311	717.58057	-202.61929	786.60321	840.78595	-213.18369	837.31824	684.71088	-291.0593	877.92725	827.32397	-319.31912	868.8526	773.9729	-326.13174	851.98926	751.79944	-319.9949	887.89172	739.74615	-319.3002	801.27417	461.17188	-263.21927	750.17419	458.05536	-213.10664	821.00153	192.87267	-240.21158	777.50311	207.91266	-191.06337	829.01312	93.872742	-223.49013	766.39697	391.60052	-157.04448	774.11414	363.73669	-150.07849	748.24146	360.29022	-176.4881	905.17072	59.972176	-188.63014	686.71564	69.530403	-178.90451	743.6709	114.85434	-178.51031
489	4.88	719.60486	101.28014	-168.91319	718.67407	104.65302	-206.26721	870.91901	1426.4115	-125.4746	857.79742	1399.3527	-116.36435	858.57001	1401.6747	-154.36967	873.19775	1043.6156	-0.49321947	862.86572	1066.9891	-250.34479	1038.1294	1050.6254	-56.298882	1036.9813	1060.9299	-174.37115	1049.7048	1112.1733	-118.18129	1052.1357	1086.9866	-133.0128	1056.8156	1079.1903	-93.181061	906.49933	515.32819	28.663813	801.75848	584.27252	-7.1204243	795.61646	675.13513	3.7653124	816.69415	816.09442	10.466302	917.44757	657.99261	41.017735	924.16803	804.69598	59.9832	926.38062	760.48474	66.426407	926.52936	730.37622	64.524651	892.05542	742.69116	73.776772	938.30627	458.43823	41.784801	896.67975	407.55493	-5.2646756				1237.4951	249.30087	1.8047011	939.08575	365.54379	-30.388109	959.3504	348.0567	-20.954466	963.92938	352.07596	-59.233761	1293.8932	305.0704	-39.049915	1213.5139	102.35366	-36.618828	1188.8154	173.78531	-24.723053	1198.5541	144.59866	-17.01413	1187.9562	144.15663	-54.148949	792.8515	529.62158	-261.33295	736.15472	636.01971	-201.50415	742.66217	716.70367	-201.94537	775.4585	840.60193	-213.02829	829.3197	685.21008	-290.07797	866.82739	828.30725	-319.25726	858.61737	775.06372	-325.96994	841.50824	752.70032	-320.14804	878.18408	741.0647	-319.1131	796.57019	460.93604	-263.00082	745.48529	457.03363	-212.80934	819.32129	192.96526	-240.40036	775.95782	207.25931	-191.11646	828.73547	93.922935	-223.37709	762.9021	390.56149	-156.96396	770.27002	363.08328	-149.84158	744.95416	359.10364	-176.46996	905.13153	60.146122	-188.73151	686.62286	69.191185	-178.80281	743.5401	114.65218	-178.36792
490	4.89	719.04626	101.27776	-168.68054	718.73761	104.31779	-206.23305	857.28253	1428.4691	-125.39182	844.32794	1401.3284	-116.21125	844.60522	1403.6869	-154.13654	860.9718	1046.1405	-0.58881229	849.39343	1068.8414	-250.39157	1025.7723	1053.054	-57.115978	1023.7863	1063.2439	-175.286	1036.8956	1114.965	-119.16713	1041.2242	1089.8151	-132.7623	1044.0409	1081.7365	-94.04483	880.12268	518.34338	27.356504	778.15253	589.72998	-8.9539108	774.95721	680.58807	1.8465055	800.29993	820.62811	9.4937925	895.4549	660.11908	39.317142	907.18878	807.03168	58.874931	907.77606	762.35272	65.17173	907.9624	732.92706	63.627945	872.09814	745.81079	71.627945	909.90668	461.02399	40.25486	868.16113	411.09094	-7.5623388	1086.8987	278.76929	-23.135788	1208.5638	249.95383	0.48524034	910.55756	369.29086	-33.020069	930.67841	351.42798	-23.531881	935.72382	356.0321	-61.691906	1267.1525	303.69437	-40.30022	1178.9691	104.32836	-37.788612	1157.2847	176.60556	-25.783497	1164.9122	147.28426	-17.477896	1155.0288	147.17757	-55.211628	787.35803	529.69922	-260.90442	729.04144	635.13086	-200.29974	734.19318	715.93341	-201.2373	764.60516	840.50244	-212.85184	819.93988	686.15558	-290.3353	855.93518	829.54492	-319.03717	849.34253	776.22614	-325.55093	832.31604	753.71057	-319.84167	868.88916	742.61914	-318.9353	792.54584	460.89224	-262.56686	741.37988	456.22684	-212.23721	818.10077	193.09857	-240.27531	774.63593	206.84991	-190.99995	828.46326	93.988892	-223.29959	759.58942	389.84851	-156.72498	767.12872	362.40799	-149.57472	741.89386	358.32803	-176.308	905.10651	60.333435	-188.72348	686.48676	68.987701	-178.69307	743.34039	114.53135	-178.23654
